REM DIRINDEX 1\2,1\3,1\4,1\5
REM DIRNAME cjc100,folder01,folder02,folder03,folder04
TITLE ""
FILE "CD2Track33.mp3" MP3
  TRACK 01 AUDIO
    TITLE "0:"
    INDEX 01 00:00:00
  TRACK 02 AUDIO
    TITLE "2:cjc100_1977"
    INDEX 01 00:00:27
  TRACK 03 AUDIO
    TITLE "2:cjc100_1978"
    INDEX 01 00:01:68
  TRACK 04 AUDIO
    TITLE "0:"
    INDEX 01 00:08:34
